<svg width="220" height="40" viewBox="0 0 220 40" fill="none" xmlns="http://www.w3.org/2000/svg">
<g clip-path="url(#clip0_216_9163)">
<path d="M30.5726 17.5548C30.0032 18.1268 29.5672 18.8171 29.2956 19.5764C29.0239 20.3359 28.9234 21.1457 29.0011 21.9484L28.9741 21.9214C29.054 22.8663 28.9263 23.817 28.6001 24.7075C28.2739 25.598 27.7571 26.4066 27.0857 27.0771C26.4141 27.7475 25.6041 28.2637 24.7121 28.5892C23.8203 28.9148 22.8679 29.0423 21.9217 28.9625L21.9487 28.9895C20.8168 28.8844 19.6799 29.1302 18.693 29.6938C17.7062 30.2574 16.9174 31.111 16.4344 32.1385C15.9514 33.1661 15.7974 34.3172 15.9936 35.4353C16.1899 36.5533 16.7268 37.5837 17.531 38.3859C18.3353 39.1881 19.3677 39.7231 20.4876 39.918C21.6077 40.113 22.7605 39.9582 23.7892 39.475C24.8179 38.9917 25.6722 38.2036 26.2357 37.2178C26.7993 36.232 27.0446 35.0968 26.9383 33.9666L26.9668 33.9936C26.8869 33.0489 27.0144 32.098 27.3406 31.2075C27.6668 30.3171 28.1838 29.5084 28.8552 28.8379C29.5268 28.1675 30.3368 27.6514 31.2286 27.3258C32.1206 27.0002 33.0728 26.8727 34.0192 26.9525L33.9906 26.9255C34.9152 27.0084 35.846 26.8571 36.6965 26.4854C37.5469 26.1137 38.2897 25.5336 38.8558 24.799C39.4219 24.0645 39.7933 23.199 39.9351 22.2831C40.0771 21.367 39.9852 20.4301 39.6679 19.5588C39.3505 18.6878 38.8181 17.9108 38.1199 17.2998C37.4217 16.6888 36.5804 16.2637 35.6738 16.0639C34.7673 15.8641 33.8248 15.8959 32.9338 16.1565C32.0429 16.4172 31.2324 16.8981 30.5771 17.5548H30.5726Z" fill="white"/>
<path d="M19.4893 25.4525L19.4607 25.4255C20.265 25.5063 21.0772 25.4078 21.8388 25.1369C22.6002 24.866 23.2919 24.4296 23.8637 23.8591C24.4354 23.2887 24.8732 22.5984 25.145 21.8383C25.4169 21.0782 25.5162 20.2675 25.4359 19.4643L25.4644 19.4913C25.3845 18.5465 25.5122 17.5958 25.8382 16.7052C26.1644 15.8148 26.6814 15.0061 27.3528 14.3356C28.0244 13.6652 28.8343 13.1491 29.7262 12.8236C30.6182 12.4978 31.5704 12.3704 32.5168 12.4502L32.4882 12.4232C33.6203 12.5294 34.7575 12.2842 35.7449 11.7213C36.7324 11.1584 37.5218 10.3051 38.0056 9.27779C38.4893 8.25048 38.6439 7.09916 38.4483 5.98088C38.2527 4.86259 37.7164 3.8318 36.9123 3.02907C36.1083 2.22636 35.0758 1.69079 33.9558 1.49546C32.8357 1.30011 31.6826 1.45448 30.6536 1.93751C29.6246 2.42054 28.77 3.20873 28.2062 4.19456C27.6423 5.18038 27.3968 6.31586 27.5032 7.4461L27.4761 7.4176C27.5562 8.36246 27.4288 9.31339 27.1028 10.204C26.7768 11.0946 26.2598 11.9034 25.5884 12.574C24.9168 13.2443 24.1067 13.7605 23.2147 14.086C22.3225 14.4115 21.3701 14.5387 20.4238 14.4587L20.4508 14.4872C19.6466 14.4064 18.8342 14.5049 18.0728 14.7759C17.3114 15.0466 16.6196 15.4831 16.0478 16.0536C15.476 16.624 15.0383 17.3144 14.7664 18.0744C14.4946 18.8345 14.3953 19.6452 14.4757 20.4484L14.4486 20.4214C14.5283 21.3661 14.4004 22.3168 14.0742 23.2072C13.7479 24.0975 13.2311 24.9062 12.5596 25.5765C11.8882 26.2469 11.0783 26.7629 10.1865 27.0887C9.29473 27.4144 8.34251 27.542 7.39627 27.4625L7.42332 27.4895C6.29127 27.3833 5.15398 27.6284 4.16657 28.1914C3.17918 28.7543 2.38974 29.6075 1.90594 30.6349C1.42213 31.6623 1.2675 32.8136 1.46316 33.9318C1.65882 35.0501 2.19525 36.0809 2.99924 36.8836C3.80324 37.6864 4.83568 38.2219 5.95575 38.4172C7.07582 38.6125 8.22897 38.4582 9.25794 37.9752C10.2869 37.4922 11.1416 36.704 11.7054 35.7182C12.2692 34.7322 12.5147 33.5969 12.4084 32.4666L12.4369 32.4936C12.357 31.5487 12.4847 30.598 12.8109 29.7074C13.1369 28.817 13.6539 28.0084 14.3253 27.3379C14.9969 26.6675 15.8068 26.1513 16.6987 25.8258C17.5907 25.5002 18.5429 25.3727 19.4893 25.4525Z" fill="white"/>
<path d="M9.42004 22.4419C9.98948 21.8701 10.4255 21.1798 10.6969 20.4203C10.9683 19.6608 11.0684 18.8508 10.9901 18.0483L11.0186 18.0753C10.9387 17.1303 11.0663 16.1791 11.3927 15.2884C11.719 14.3977 12.2362 13.5889 12.9081 12.9184C13.5799 12.2479 14.3902 11.7319 15.2825 11.4065C16.1748 11.081 17.1275 10.954 18.074 11.0342L18.0454 11.0072C19.1771 11.113 20.3139 10.8678 21.3009 10.3049C22.2878 9.74207 23.0767 8.88895 23.5604 7.86196C24.0439 6.83495 24.1983 5.68405 24.0027 4.56618C23.8071 3.44831 23.2707 2.41791 22.4671 1.61549C21.6634 0.813062 20.6313 0.277671 19.5117 0.0823374C18.392 -0.113012 17.2392 0.0412215 16.2107 0.523961C15.182 1.0067 14.3275 1.79447 13.7638 2.77984C13.2 3.76521 12.9543 4.90022 13.0604 6.03008L13.0334 6.00308C13.1133 6.94787 12.9856 7.89869 12.6594 8.78917C12.3332 9.67965 11.8164 10.4883 11.1449 11.1588C10.4734 11.8292 9.66341 12.3453 8.77151 12.6709C7.87962 12.9965 6.92729 13.124 5.98099 13.0442L6.00803 13.0712C5.0834 12.9884 4.15278 13.1401 3.30244 13.5119C2.4521 13.8838 1.70953 14.464 1.14355 15.1987C0.577574 15.9333 0.206506 16.7988 0.0647077 17.7147C-0.0770759 18.6308 0.0150075 19.5677 0.332424 20.4386C0.649841 21.3097 1.18234 22.0865 1.88057 22.6974C2.57879 23.3083 3.42014 23.7333 4.32667 23.9331C5.23319 24.1327 6.17555 24.1008 7.06645 23.8402C7.95732 23.5795 8.76788 23.0986 9.42303 22.4419H9.42004Z" fill="white"/>
<path d="M62.7812 7.59375L62.75 7.60938C65.1406 7.60938 67.0781 8.4375 68.5625 10.0781C70.0469 11.7188 70.7969 13.5781 70.7969 15.6562C70.7969 17.7656 70.0469 19.6406 68.5469 21.2812C67.0469 22.9219 65.0469 23.7344 62.5625 23.7344H57.25V30H52V7.59375H62.7812ZM62.4062 19L62.4219 18.9844C63.3594 18.9844 64.125 18.6562 64.7344 18C65.3438 17.3438 65.6406 16.5781 65.6406 15.7031C65.6406 14.8281 65.3594 14.0625 64.7812 13.4062C64.2031 12.75 63.4844 12.4219 62.625 12.4219H57.2188V19H62.4062Z" fill="white"/>
<path d="M78.0312 15.8906L78.0156 15.8594C78.5 14.9688 79.1875 14.2969 80.0625 13.8594C80.9375 13.4219 81.9531 13.2812 83.125 13.4219V18.2188C81.375 17.9219 80.0938 18.1719 79.2656 18.9688C78.4375 19.7656 78.0312 21.1719 78.0312 23.1875V30H72.9062V13.6875H78.0312V15.8906Z" fill="white"/>
<path d="M92.7031 30.4531V30.4688C90.1719 30.4688 88.0781 29.6406 86.4219 28C84.7656 26.3594 83.9375 24.3125 83.9375 21.8594C83.9375 19.4062 84.7656 17.3594 86.4219 15.7188C88.0781 14.0781 90.1719 13.25 92.7031 13.25C95.2344 13.25 97.3281 14.0625 98.9844 15.7031C100.641 17.3438 101.469 19.3906 101.469 21.8438C101.469 24.2969 100.641 26.3438 98.9844 27.9844C97.3281 29.625 95.2344 30.4531 92.7031 30.4531ZM92.7031 25.8594V25.875C93.8594 25.875 94.7812 25.5 95.4688 24.75C96.1562 24 96.5 23.0312 96.5 21.8594C96.5 20.6875 96.1562 19.7344 95.4688 18.9844C94.7812 18.2344 93.8594 17.8594 92.7031 17.8594C91.5469 17.8594 90.625 18.2344 89.9375 18.9844C89.25 19.7344 88.9062 20.6875 88.9062 21.8594C88.9062 23.0312 89.25 23.9844 89.9375 24.7344C90.625 25.4844 91.5469 25.8594 92.7031 25.8594Z" fill="white"/>
<path d="M121.234 12.4062H109.562V16.2969H119.609V20.9375H109.562V25.2031H121.203V30H104.375V7.59375H121.234V12.4062Z" fill="white"/>
<path d="M124.438 30V6.64062H129.562V30H124.438Z" fill="white"/>
<path d="M141.406 30.4531L141.391 30.4688C138.719 30.4688 136.562 29.6719 134.906 28.0781C133.25 26.4844 132.422 24.4219 132.422 21.875C132.422 19.375 133.219 17.3125 134.812 15.6875C136.406 14.0625 138.484 13.25 141.062 13.25C143.688 13.25 145.766 14.0469 147.297 15.6406C148.828 17.2344 149.594 19.25 149.594 21.6875C149.594 22.3281 149.547 22.8906 149.469 23.375H137.406C137.797 25.25 139.156 26.1875 141.484 26.1875C143.047 26.1875 144.141 25.6406 144.75 24.5312L149.359 25.875C148.844 27.0469 147.891 28.1094 146.484 29.0469C145.078 29.9844 143.391 30.4531 141.406 30.4531ZM137.422 20.3125H144.609C144.531 19.5469 144.172 18.8906 143.516 18.3438C142.859 17.7969 142.031 17.5312 141.031 17.5312C140.031 17.5312 139.203 17.8125 138.562 18.3594C137.922 18.9062 137.547 19.5625 137.422 20.3125Z" fill="white"/>
<path d="M163.109 13.6875H168.703L162.125 30H156.359L149.766 13.6875H155.391L159.234 24.1719L163.109 13.6875Z" fill="white"/>
<path d="M177.031 30.4531H177.016C174.797 30.4531 172.922 29.625 171.391 27.9844C169.859 26.3438 169.094 24.2969 169.094 21.8438C169.094 19.3906 169.859 17.3438 171.391 15.7031C172.922 14.0625 174.797 13.2344 177.016 13.2344C178.953 13.2344 180.516 13.8906 181.719 15.1875V13.6875H186.844V30H181.719V28.5C180.484 29.7969 178.922 30.4531 177.031 30.4531ZM177.953 25.9062L177.938 25.9219C179.078 25.9219 180.016 25.5469 180.75 24.7812C181.484 24.0156 181.859 23.0312 181.859 21.8281C181.859 20.625 181.484 19.6562 180.75 18.9062C180.016 18.1562 179.078 17.7812 177.953 17.7812C176.844 17.7812 175.938 18.1562 175.219 18.9062C174.5 19.6562 174.141 20.625 174.141 21.8281C174.141 23.0469 174.5 24.0312 175.219 24.7812C175.938 25.5312 176.844 25.9062 177.953 25.9062Z" fill="white"/>
<path d="M200.156 25.3906L201.391 29.4688C200.047 30 198.719 30.2656 197.391 30.2656C195.469 30.2656 194.031 29.7188 193.062 28.625C192.094 27.5312 191.609 26.0312 191.609 24.1094V18.1562H189.078V13.6875H191.609V8.5625H196.734V13.6875H201.125V18.1562H196.734V24.1094C196.734 25.25 197.297 25.8125 198.422 25.8125C199.047 25.8125 199.625 25.6719 200.156 25.3906Z" fill="white"/>
<path d="M211.281 30.4531L211.266 30.4688C208.594 30.4688 206.438 29.6719 204.781 28.0781C203.125 26.4844 202.297 24.4219 202.297 21.875C202.297 19.375 203.094 17.3125 204.688 15.6875C206.281 14.0625 208.359 13.25 210.938 13.25C213.562 13.25 215.641 14.0469 217.172 15.6406C218.703 17.2344 219.469 19.25 219.469 21.6875C219.469 22.3281 219.422 22.8906 219.344 23.375H207.281C207.672 25.25 209.031 26.1875 211.359 26.1875C212.922 26.1875 214.016 25.6406 214.625 24.5312L219.234 25.875C218.719 27.0469 217.766 28.1094 216.359 29.0469C214.953 29.9844 213.266 30.4531 211.281 30.4531ZM207.297 20.3125H214.484C214.406 19.5469 214.047 18.8906 213.391 18.3438C212.734 17.7969 211.906 17.5312 210.906 17.5312C209.906 17.5312 209.078 17.8125 208.438 18.3594C207.797 18.9062 207.422 19.5625 207.297 20.3125Z" fill="white"/>
</g>
<defs>
<clipPath id="clip0_216_9163">
<rect width="220" height="40" fill="white"/>
</clipPath>
</defs>
</svg>
